<svg id="图层_1" data-name="图层 1" xmlns="http://www.w3.org/2000/svg" viewBox="0 0 16 16"><path d="M16,12a3.91,3.91,0,0,1-4.05,3.45,3.75,3.75,0,0,1-2.86-1.67l.95-.59a2.27,2.27,0,0,0,1.91,1.07,2.52,2.52,0,0,0,.48-5,3.25,3.25,0,0,0-1.55.36l-.24.24L8.24,5.77S8.12,5.42,8,5.42a1.13,1.13,0,0,1-1.19-1.2A1.2,1.2,0,0,1,8,3,1.13,1.13,0,0,1,9.2,4.22c0,.24-.12.36-.24.6l2,3.46A7,7,0,0,1,12.53,8,3.65,3.65,0,0,1,16,12Zm-5.6-6.56a2.28,2.28,0,0,0,0-2.15A2.52,2.52,0,0,0,7.05,2,2.44,2.44,0,0,0,5.86,5.3,2.63,2.63,0,0,0,6.93,6.49l.36.12L4.9,10.66s-.24.24-.12.36a1.05,1.05,0,0,1-.47,1.55,1.23,1.23,0,0,1-1.2-2.14.9.9,0,0,1,.6-.12l2-3.46a4.83,4.83,0,0,1-1-1.19A3.48,3.48,0,0,1,6.45.89a3.9,3.9,0,0,1,5,1.78,3.78,3.78,0,0,1,0,3.22l-1.07-.47ZM1.68,10.07a2.62,2.62,0,0,0,.6,3.57,2.5,2.5,0,0,0,3.46-.59,2.6,2.6,0,0,0,.47-1.55v-.36h5.13A1.18,1.18,0,0,1,13,10.78a1.23,1.23,0,0,1-1.19,2.15c-.24-.12-.36-.24-.36-.48H7.53a13.58,13.58,0,0,0-.84,1.31,3.67,3.67,0,0,1-5.13,1A3.93,3.93,0,0,1,.61,9.47,3.7,3.7,0,0,1,3.47,7.92V9.11a2.28,2.28,0,0,0-1.79,1Z"/></svg>