<svg xmlns="http://www.w3.org/2000/svg" viewBox="0 0 16 16"><path d="M15.1,4.06l-.82.82a2.24,2.24,0,0,1-3.16,0,2.26,2.26,0,0,1,0-3.18l.82-.82c.45-.45.15-1-.66-.86A4.08,4.08,0,0,0,8.81,1.4a4,4,0,0,0-.9,3.53L1.06,11.82a2.26,2.26,0,0,0,0,3.18,2.22,2.22,0,0,0,3.16,0l6.85-6.89A4.08,4.08,0,0,0,16,4.43C16.08,3.91,15.55,3.6,15.1,4.06ZM3.16,13.94a.71.71,0,0,1-.52.22.75.75,0,1,1,.52-1.28.73.73,0,0,1,.22.53A.72.72,0,0,1,3.16,13.94ZM2.42,4.19,5,6.79l1-1.06L3.47,3.14,2.9,2,1.05.7,0,1.76,1.32,3.61ZM11.05,9.7a.36.36,0,0,0-.52,0L9,11.29a.35.35,0,0,0-.11.26.39.39,0,0,0,.11.27l3.72,3.74a1.48,1.48,0,0,0,2.11,0,1.5,1.5,0,0,0,0-2.11Z"/></svg>