<svg xmlns="http://www.w3.org/2000/svg" viewBox="0 0 16 16"><g><path d="M4.83,4C1.78,4,0,4.84,0,5.88V7C0,8,1.78,8.87,4.83,8.87S10,8,10,7V5.88C10,4.84,7.86,4,4.83,4Z"/><path d="M4.83,10.1c-2.43,0-4-.53-4.61-1.27A1,1,0,0,0,0,9.44v1.12c0,1,1.78,1.88,4.83,1.88S10,11.6,10,10.56V9.44a.92.92,0,0,0-.26-.61C9.09,9.57,7.25,10.1,4.83,10.1Z"/><path d="M4.83,13.67c-2.43,0-4-.53-4.61-1.27A.94.94,0,0,0,0,13v1.13C0,15.17,1.78,16,4.83,16S10,15.16,10,14.13V13a.89.89,0,0,0-.26-.6C9.09,13.14,7.25,13.67,4.83,13.67Z"/></g><path d="M10.83,0C7.78,0,6,.78,6,1.75V3H7V1.81C7.17,1.61,8.18,1,10.83,1s3.9.59,4.17.85v8.31c-.26.25-1.51.81-4,.84v1c2.95,0,5-.79,5-1.73V1.75C16,.78,13.86,0,10.83,0Z"/></svg>