<svg xmlns="http://www.w3.org/2000/svg" viewBox="0 0 16 16"><path id="路径_221" data-name="路径 221" class="cls-1" d="M15,2H11V1.06A1.08,1.08,0,0,0,9.94,0H6.06A1.08,1.08,0,0,0,5,1.06V2H1A1,1,0,0,0,1,4H15a1,1,0,0,0,0-2Z"/><path id="矩形_928" data-name="矩形 928" class="cls-1" d="M6,6.5H6a1,1,0,0,1,1,1v4a1,1,0,0,1-1,1H6a1,1,0,0,1-1-1v-4A1,1,0,0,1,6,6.5Z"/><path id="矩形_929" data-name="矩形 929" class="cls-1" d="M10,6.5h0a1,1,0,0,1,1,1v4a1,1,0,0,1-1,1h0a1,1,0,0,1-1-1v-4A1,1,0,0,1,10,6.5Z"/><path id="路径_222" data-name="路径 222" class="cls-1" d="M13,5v9H3V5H1v9a2,2,0,0,0,2,2H13a2,2,0,0,0,2-2V5Z"/></svg>