<svg version="1.1" xmlns:xlink="http://www.w3.org/1999/xlink" xmlns="http://www.w3.org/2000/svg">
  <defs>
    <linearGradient gradientUnits="userSpaceOnUse" x1="80" y1="0" x2="80" y2="125" id="LinearGradient68">
      <stop id="Stop69" stop-color="#0090bc" offset="0" />
      <stop id="Stop70" stop-color="#0aadde" offset="1" />
    </linearGradient>
  </defs>
  <g transform="matrix(1 0 0 1 -383 -237 )">
    <path d="M 76.4571428571435 18.0067567567565  C 76.4571428571435 18.0067567567565  64.0958086295421 5.82550971479811  60.6857142857143 3.30301455301247  C 57.2756199418865 0.780519391226835  55.325714285714 0  52.1142857142854 0  C 52.1142857142854 0  12.5714285714287 0  12.5714285714287 0  C 5.63428571428581 0  0 5.25285862785629  0 11.7203742203719  C 0 11.7203742203719  0 113.279625779626  0 113.279625779626  C 0 119.747141372141  5.63428571428572 125  12.5714285714286 125  C 12.5714285714286 125  147.428571428571 125  147.428571428571 125  C 154.365714285714 125  160 119.747141372141  160 113.279625779626  C 160 113.279625779626  160 33.0301455301468  160 33.0301455301468  C 160 26.5626299376312  154.365714285714 21.3097713097692  147.428571428571 21.3097713097692  C 147.428571428571 21.3097713097692  85.0285714285746 21.3097713097692  85.0285714285746 21.3097713097692  C 81.8171428571461 21.3204261954241  78.7314285714292 20.1270790020788  76.4571428571435 18.0067567567565  Z " fill-rule="nonzero" fill="url(#LinearGradient68)" stroke="none" transform="matrix(1 0 0 1 383 237 )" />
  </g>
</svg>