<svg id="图层_1" data-name="图层 1" xmlns="http://www.w3.org/2000/svg" viewBox="0 0 16 16"><path d="M7.75,6.4C12,6.4,15,5.28,15,3.9V2.4C15,1,12-.09,7.75-.09S1,1,1,2.4V3.9C1,5.29,3.49,6.4,7.75,6.4Z"/><path d="M7.75,11.15h.7a4,4,0,0,1,5.89-1.42A1.4,1.4,0,0,0,15,8.66V7.16a1.2,1.2,0,0,0-.36-.81C13.72,7.33,11.15,8,7.75,8S2.09,7.34,1.3,6.35a1.29,1.29,0,0,0-.3.81v1.5C1,10.05,3.49,11.15,7.75,11.15Z"/><path d="M8,12.79H7.75c-3.39,0-5.66-.7-6.45-1.68a1.27,1.27,0,0,0-.3.8v1.5c0,1.39,2.49,2.5,6.75,2.5.53,0,1,0,1.51-.05A4,4,0,0,1,8,13C8,12.89,8,12.84,8,12.79Z"/><polygon points="13 11.95 13 9.95 9 12.95 13 15.95 13 13.95 16 13.95 16 11.95 13 11.95"/></svg>