<svg xmlns="http://www.w3.org/2000/svg" viewBox="0 0 16 16"><path d="M8.17,7.64a1.71,1.71,0,0,0-1.42.62,2.43,2.43,0,0,0-.48,1.59,2.4,2.4,0,0,0,.48,1.58A1.77,1.77,0,0,0,8.17,12a1.93,1.93,0,0,0,1-.25c-.29-.36-.57-.69-.85-1l.5-.49c.29.3.58.63.86,1a2.57,2.57,0,0,0,.36-1.43,2.45,2.45,0,0,0-.48-1.61A1.72,1.72,0,0,0,8.17,7.64Z"/><path d="M12,13V7h.86v5.26H16V6H15V4L11.06,0H1V6H0v8H1v2H15V14h1V13ZM2,1h8.64L14,4.41V6H2Zm8.88,11.82-.56.49c-.22-.31-.42-.6-.63-.88a3,3,0,0,1-1.52.38A2.63,2.63,0,0,1,6.11,12,3.06,3.06,0,0,1,5.4,9.85a3.09,3.09,0,0,1,.71-2.12,2.6,2.6,0,0,1,2.06-.85,2.62,2.62,0,0,1,2.05.84,3.09,3.09,0,0,1,.72,2.13,3.14,3.14,0,0,1-.69,2.1C10.46,12.23,10.67,12.51,10.88,12.82Zm-10-.3a2,2,0,0,1-.77-1.59H1a1.37,1.37,0,0,0,.48,1,1.7,1.7,0,0,0,1.06.27,2,2,0,0,0,1-.23.65.65,0,0,0,.39-.6.84.84,0,0,0-.55-.75,10.74,10.74,0,0,0-1.13-.38A11.63,11.63,0,0,1,1,9.74,1.27,1.27,0,0,1,.32,8.59,1.36,1.36,0,0,1,1,7.41,2.66,2.66,0,0,1,2.46,7,2.54,2.54,0,0,1,4,7.42,1.81,1.81,0,0,1,4.7,8.8H3.84A1.24,1.24,0,0,0,3.39,8a1.56,1.56,0,0,0-1-.25,1.83,1.83,0,0,0-.87.17.68.68,0,0,0,.06,1.23,7,7,0,0,0,1,.35,9.33,9.33,0,0,1,1.5.56,1.46,1.46,0,0,1,.13,2.44,2.82,2.82,0,0,1-1.68.43A2.85,2.85,0,0,1,.92,12.52ZM14,15H2V14H14Z"/></svg>