<svg version="1.1" xmlns:xlink="http://www.w3.org/1999/xlink" width="16px" height="16px" xmlns="http://www.w3.org/2000/svg"> <g> <path d="M 9.22142906959175 0.108594385267168  C 8.75874069437077 0.034869756737379  8.35873913127648 0  7.96072762571021 0  C 7.5736614365469 0  7.17166981592482 0.034869756737379  6.69803612430064 0.10959066403106  C 6.69803612430064 0.10959066403106  6.280124043456 0.176341341213458  6.280124043456 0.176341341213458  C 6.280124043456 0.176341341213458  5.85325670373595 1.45855211037335  5.85325670373595 1.45855211037335  C 5.50101652130979 1.57511672575151  5.16171171281439 1.71459575269978  4.84628759465295 1.87499663369024  C 4.84628759465295 1.87499663369024  3.64230279031472 1.26826286646539  3.64230279031472 1.26826286646539  C 3.64230279031472 1.26826286646539  3.29802283799972 1.51633627868048  3.29802283799972 1.51633627868048  C 2.61344304842555 2.01347938187456  2.01244567502022 2.6122429189881  1.51393626429831 3.30067154485405  C 1.51393626429831 3.30067154485405  1.26517907331936 3.64737655469682  1.26517907331936 3.64737655469682  C 1.26517907331936 3.64737655469682  1.86916153301627 4.85486641656303  1.86916153301627 4.85486641656303  C 1.70597681573395 5.1776607360718  1.5656777600218 5.51539923703933  1.4542345384632 5.8611079681182  C 1.4542345384632 5.8611079681182  0.174627548067292 6.28552272154641  0.174627548067292 6.28552272154641  C 0.174627548067292 6.28552272154641  0.107960620885024 6.70495608115505  0.107960620885024 6.70495608115505  C 0.0353235211191532 7.16822570637601  0.000497514382004738 7.58068511463722  0.000497514382004738 7.97023011132839  C 0.000497514382004738 8.36176766554738  0.0353235211191532 8.77422707380862  0.107960620885024 9.23351158397389  C 0.107960620885024 9.23351158397389  0.174627548067292 9.65294494358253  0.174627548067292 9.65294494358253  C 0.174627548067292 9.65294494358253  1.4542345384632 10.0813448120664  1.4542345384632 10.0813448120664  C 1.5656777600218 10.4270535431453  1.70597681573395 10.7667846016406  1.87115159054406 11.0895789211494  C 1.87115159054406 11.0895789211494  1.27114924590273 12.29308366796  1.27114924590273 12.29308366796  C 1.27114924590273 12.29308366796  1.5189114081179 12.6358035627471  1.5189114081179 12.6358035627471  C 1.77761888673604 12.9954601965208  2.04428659546556 13.312276843446  2.33383996576504 13.6041865212734  C 2.60448778955015 13.8771669025864  2.9209069364756 14.1441696113159  3.29901786676351 14.4221313864485  C 3.29901786676351 14.4221313864485  3.6432978190785 14.6702047986635  3.6432978190785 14.6702047986635  C 3.6432978190785 14.6702047986635  4.84827765218074 14.0654635889665  4.84827765218074 14.0654635889665  C 5.17265702921736 14.2318421425405  5.50997178018497 14.3733137270166  5.85524676126374 14.4829043910474  C 5.85524676126374 14.4829043910474  6.28211410098379 15.7661114389712  6.28211410098379 15.7661114389712  C 6.28211410098379 15.7661114389712  6.70002618182843 15.8318658373896  6.70002618182843 15.8318658373896  C 7.15972947075784 15.9055904659194  7.57167137901888 15.9404602226565  7.96072762571021 15.9404602226565  C 8.35077890116509 15.9404602226565  8.76272080942636 15.9055904659194  9.22341912711954 15.8318658373896  C 9.22341912711954 15.8318658373896  9.64232623672819 15.7661114389712  9.64232623672819 15.7661114389712  C 9.64232623672819 15.7661114389712  10.0681985476842 14.4829043910474  10.0681985476842 14.4829043910474  C 10.4104884424714 14.3713211694888  10.746808164675 14.2318421425405  11.0731775992394 14.0674561464944  C 11.0731775992394 14.0674561464944  12.2801474898695 14.6721973561914  12.2801474898695 14.6721973561914  C 12.2801474898695 14.6721973561914  12.6244274421845 14.4241239439763  12.6244274421845 14.4241239439763  C 12.9985582574168 14.1531361201911  13.3149774043422 13.8861334114617  13.5896053431829 13.6061790788013  C 13.874183569663 13.3212433523213  14.1388612208646 13.0034304266321  14.4045339008303 12.6377961202749  C 14.4045339008303 12.6377961202749  14.6522960630452 12.292087389196  14.6522960630452 12.292087389196  C 14.6522960630452 12.292087389196  14.0483136033483 11.0836012485659  14.0483136033483 11.0836012485659  C 14.2144834069222 10.7608069290571  14.3537874338706 10.4230684280896  14.466225684193 10.0763634182468  C 14.466225684193 10.0763634182468  15.7458326745891 9.64796354976295  15.7458326745891 9.64796354976295  C 15.7458326745891 9.64796354976295  15.8115045730074 9.22853019015432  15.8115045730074 9.22853019015432  C 15.8851367015372 8.76924567998904  15.9199627082744 8.3567862717278  15.9199627082744 7.96724127503666  C 15.924937852094 7.58068511463722  15.8901118453568 7.16623314884816  15.8134946305354 6.70495608115505  C 15.8134946305354 6.70495608115505  15.7468277033529 6.28552272154641  15.7468277033529 6.28552272154641  C 15.7468277033529 6.28552272154641  14.467220712957 5.85712285306255  14.467220712957 5.85712285306255  C 14.3557774913984 5.51141412198368  14.21647346445 5.17267934225222  14.0503036608761 4.84888874397953  C 14.0503036608761 4.84888874397953  14.654286120573 3.64139888211332  14.654286120573 3.64139888211332  C 14.654286120573 3.64139888211332  14.4065239583581 3.29569015103448  14.4065239583581 3.29569015103448  C 13.9040344325804 2.60925408269634  13.3030370591753 2.00750170929106  12.6204473271289 1.51135488486091  C 12.6204473271289 1.51135488486091  12.2761673748139 1.26328147264582  12.2761673748139 1.26328147264582  C 12.2761673748139 1.26328147264582  11.0701925129476 1.86802268234283  11.0701925129476 1.86802268234283  C 10.745813135911 1.70164412876886  10.4084983849434 1.56216510182063  10.0632234038646 1.45058188026204  C 10.0632234038646 1.45058188026204  9.6373510929086 0.173352504921695  9.6373510929086 0.173352504921695  C 9.6373510929086 0.173352504921695  9.22142906959175 0.108594385267168  9.22142906959175 0.108594385267168  Z M 7.77266718932992 1.99654264288804  C 7.83634903022062 1.99355380659631  7.8990358423473 1.99255752783239  7.96072762571021 1.99255752783239  C 8.02241940907288 1.99255752783239  8.08411119243578 1.99355380659631  8.14679800456247 1.99654264288804  C 8.14679800456247 1.99654264288804  8.17465880995201 2.08122633782091  8.17465880995201 2.08122633782091  L 8.49406304316904 3.03665767241637  C 8.49406304316904 3.03665767241637  9.45128071405634 3.34650036799425  9.45128071405634 3.34650036799425  C 9.69506276121569 3.42520639034362  9.93486469331947 3.52483426673521  10.1647163377841 3.6423951608773  C 10.1647163377841 3.6423951608773  11.0612372540725 4.10068339227865  11.0612372540725 4.10068339227865  L 11.9607432566524 3.65036539098864  C 11.9607432566524 3.65036539098864  12.0393505290019 3.610514240432  12.0393505290019 3.610514240432  C 12.1318882040459 3.69719049289267  12.2224358215624 3.78785186040903  12.309003324023 3.88050578545324  C 12.309003324023 3.88050578545324  12.2711922309943 3.95721925027476  12.2711922309943 3.95721925027476  L 11.8184541434125 4.86084408914658  C 11.8184541434125 4.86084408914658  12.2801474898695 5.75948753419883  12.2801474898695 5.75948753419883  C 12.3955708264837 5.98365025607993  12.4940786741115 6.22375343818368  12.5736809752248 6.47083057163485  C 12.5736809752248 6.47083057163485  12.8831349208026 7.42825446375815  12.8831349208026 7.42825446375815  L 13.8363724766341 7.74706366821127  C 13.8363724766341 7.74706366821127  13.9289101516783 7.77794830989265  13.9289101516783 7.77794830989265  C 13.9299051804423 7.84171015078329  13.9309002092061 7.90447571291  13.9299051804423 7.96724127503671  C 13.9299051804423 8.02901055839951  13.9289101516783 8.09177612052619  13.9259250653865 8.15553796141683  C 13.9259250653865 8.15553796141683  13.8353774478703 8.18642260309821  13.8353774478703 8.18642260309821  L 12.879154805747 8.50622808631528  C 12.879154805747 8.50622808631528  12.571690917697 9.46564453596639  12.571690917697 9.46564453596639  C 12.4930836453475 9.70873655436188  12.3945757977199 9.94684717893782  12.2781574323417 10.1739987371107  C 12.2781574323417 10.1739987371107  11.8164640858847 11.0726421821629  11.8164640858847 11.0726421821629  L 12.2692021734665 11.9762670210347  C 12.2692021734665 11.9762670210347  12.3119884103148 12.0609507159676  12.3119884103148 12.0609507159676  C 12.2642270296469 12.1127572116912  12.2174606777428 12.1615748711231  12.1687042683109 12.210392530555  C 12.1308931752822 12.2492474023477  12.0900969959616 12.2881022741404  12.0483057878771 12.3279534246971  C 12.0483057878771 12.3279534246971  11.964723371708 12.2851134378487  11.964723371708 12.2851134378487  L 11.0711875417117 11.8377842728504  C 11.0711875417117 11.8377842728504  10.1796417692428 12.2871059953765  10.1796417692428 12.2871059953765  C 9.94083486590307 12.4076557258103  9.69506276121569 12.5092761597298  9.45028568529233 12.5889784608431  C 9.45028568529233 12.5889784608431  8.49605310069683 12.9008137139488  8.49605310069683 12.9008137139488  L 8.1796339537716 13.8542524910164  C 8.1796339537716 13.8542524910164  8.14978309085427 13.9439175797689  8.14978309085427 13.9439175797689  C 8.08510622119957 13.9469064160606  8.02241940907288 13.9479026948245  7.96072762571021 13.9479026948245  C 7.8990358423473 13.9479026948245  7.83734405898463 13.9469064160606  7.77366221809393 13.9439175797689  C 7.77366221809393 13.9439175797689  7.74381135517638 13.8542524910164  7.74381135517638 13.8542524910164  L 7.42440712195935 12.8918472050735  C 7.42440712195935 12.8918472050735  6.45823419219687 12.5839970670235  6.45823419219687 12.5839970670235  C 6.2273875189685 12.5102724384937  5.98957564439252 12.411640840866  5.75275879858054 12.2910911104322  C 5.75275879858054 12.2910911104322  4.85623788229213 11.8318066002669  4.85623788229213 11.8318066002669  L 3.95673187971215 12.2841171590848  C 3.95673187971215 12.2841171590848  3.87513952107088 12.3249645884053  3.87513952107088 12.3249645884053  C 3.83036322669477 12.2831208803209  3.78658196108245 12.2412771722364  3.74578578176192 12.1994334641519  C 3.70001445862181 12.1536046410118  3.65523816424547 12.1067795391077  3.61145689863315 12.0599544372037  C 3.61145689863315 12.0599544372037  3.65125804918989 11.9792558573265  3.65125804918989 11.9792558573265  L 4.10200607924389 11.0766272972186  C 4.10200607924389 11.0766272972186  3.64130776155071 10.1789801309303  3.64130776155071 10.1789801309303  C 3.52588442493652 9.95481740904913  3.42737657730868 9.71471422694538  3.34777427619542 9.4676370934942  C 3.34777427619542 9.4676370934942  3.03832033061758 8.51021320137093  3.03832033061758 8.51021320137093  L 2.08508277478609 8.19140399691781  C 2.08508277478609 8.19140399691781  1.99354012850586 8.1605193552364  1.99354012850586 8.1605193552364  C 1.99155007097806 8.09576123558188  1.99055504221405 8.03299567345516  1.99055504221405 7.97023011132845  C 1.99055504221405 7.90846082796565  1.99155007097806 7.84569526583894  1.99354012850586 7.78093714618441  C 1.99354012850586 7.78093714618441  2.08010763096649 7.75204506203085  2.08010763096649 7.75204506203085  L 3.0373253018538 7.43423213634165  C 3.0373253018538 7.43423213634165  3.34777427619542 6.47381940792661  3.34777427619542 6.47381940792661  C 3.4263815485449 6.2307273895311  3.52588442493652 5.98962792866342  3.64429284784251 5.75749497667098  C 3.64429284784251 5.75749497667098  4.09902099295209 4.86084408914658  4.09902099295209 4.86084408914658  L 3.6492679916621 3.96220064409434  C 3.6492679916621 3.96220064409434  3.60946684110536 3.88349462174497  3.60946684110536 3.88349462174497  C 3.696034343566 3.79183697546469  3.78459190355466 3.70316816547617  3.87613454983489 3.61649191301549  C 3.87613454983489 3.61649191301549  3.95275176465634 3.65534678480822  3.95275176465634 3.65534678480822  L 4.85126273847254 4.10765734362607  C 4.85126273847254 4.10765734362607  5.74778365476095 3.65136166975253  5.74778365476095 3.65136166975253  C 5.97266015540595 3.53678961190221  6.2164422025653 3.43716173551061  6.47116956612786 3.35347431934167  C 6.47116956612786 3.35347431934167  7.42540215072336 3.04163906623594  7.42540215072336 3.04163906623594  L 7.74182129764858 2.08820028916833  C 7.74182129764858 2.08820028916833  7.77266718932992 1.99654264288804  7.77266718932992 1.99654264288804  Z "/> </g> </svg>