<svg id="图层_1" data-name="图层 1" xmlns="http://www.w3.org/2000/svg" viewBox="0 0 16 16"><g id="icon1225_数据资产导航_-_SQLeditor" data-name="icon1225 数据资产导航 - SQLeditor"><path id="路径_1369" data-name="路径 1369" d="M7.54,0A7.49,7.49,0,1,0,12,13.45l2.25,2.25a1,1,0,0,0,1.41-1.42L13.5,12A7.47,7.47,0,0,0,12,1.52,7.39,7.39,0,0,0,7.5,0Zm0,13A5.49,5.49,0,1,1,13,7.5h0A5.49,5.49,0,0,1,7.54,13Z"/><path id="路径_1370" data-name="路径 1370" d="M11.28,5H5.05v6.23a3.69,3.69,0,0,0,1,.48V10h3v1.71a3.84,3.84,0,0,0,1-.48V10h1.24a4.6,4.6,0,0,0,.48-1H10V7h2a4.38,4.38,0,0,0-.71-2ZM6.05,9V7h3V9Z"/></g></svg>